Coordinates
version=1
nRows=26
nColumns=24
inDegrees=yes

Units are S.I. units (second, meters, Newtons, ...)
Angles are in degrees.

endheader
time	pelvis_tilt	pelvis_list	pelvis_rotation	pelvis_tx	pelvis_ty	pelvis_tz	hip_flexion_r	hip_adduction_r	hip_rotation_r	knee_angle_r	ankle_angle_r	subtalar_angle_r	mtp_angle_r	hip_flexion_l	hip_adduction_l	hip_rotation_l	knee_angle_l	ankle_angle_l	subtalar_angle_l	mtp_angle_l	lumbar_extension	lumbar_bending	lumbar_rotation
      7.96000000	      4.91680102	     -3.48220861	      1.75680429	     -0.16163396	      0.94370056	      0.18931505	     -2.24099604	      9.36707888	     -3.19702861	     -4.64126729	      9.41951467	     -1.93345693	      0.00000000	     10.60439555	     -3.02801562	      0.03013728	    -49.47370165	      8.49613518	     -4.89479761	      0.00000000	    -20.28881604	      4.21020313	     -0.72595759
      7.97000000	      4.73642347	     -3.35104357	      1.76103472	     -0.15391996	      0.94373474	      0.18953575	     -2.74466754	      9.26748807	     -3.13560773	     -4.33487569	      9.77942309	     -1.82404494	      0.00000000	     11.47157253	     -2.78874074	      0.19629887	    -48.04345636	      8.91528396	     -5.22415095	      0.00000000	    -20.23498859	      3.99708878	     -0.53850901
      7.98000000	      4.56150617	     -3.25528815	      1.78832210	     -0.14620255	      0.94367202	      0.18967053	     -3.25240588	      9.20262530	     -3.09001830	     -4.02919799	     10.09578769	     -1.71061880	      0.00000000	     12.25978385	     -2.58150550	      0.37565766	    -46.40365439	      9.23066644	     -5.56573198	      0.00000000	    -20.18758172	      3.83527694	     -0.34371868
      7.99000000	      4.37536758	     -3.19937899	      1.83158156	     -0.13846506	      0.94347242	      0.18975636	     -3.74329321	      9.17992895	     -3.04521304	     -3.73311438	     10.35511022	     -1.65782088	      0.00000000	     12.99215989	     -2.42987172	      0.52817137	    -44.58422522	      9.57708000	     -5.75261271	      0.00000000	    -20.11326286	      3.72036030	     -0.17009991
      8.00000000	      4.19829146	     -3.13409355	      1.85761999	     -0.13069597	      0.94319752	      0.18978146	     -4.25717762	      9.14074881	     -2.98872390	     -3.41667561	     10.71516376	     -1.58894822	      0.00000000	     13.62081707	     -2.27828850	      0.61212491	    -42.54396141	      9.68823930	     -5.99344492	      0.00000000	    -20.04950581	      3.60578098	      0.01717682
      8.01000000	      4.01689674	     -3.10861486	      1.89940846	     -0.12290024	      0.94280730	      0.18973490	     -4.76691013	      9.14185839	     -2.95498181	     -3.09773288	     11.01380819	     -1.51565996	      0.00000000	     14.17501370	     -2.16285170	      0.72108563	    -40.32503643	      9.78807678	     -6.06514326	      0.00000000	    -19.97147449	      3.54252167	      0.21147215
      8.02000000	      3.80902248	     -3.10864704	      1.93961425	     -0.11507784	      0.94227594	      0.18962739	     -5.24339872	      9.16483024	     -2.91653904	     -2.78994687	     11.27671253	     -1.45309500	      0.00000000	     14.67696980	     -2.06835952	      0.84264652	    -37.93691332	      9.86481005	     -5.94319548	      0.00000000	    -19.85568963	      3.51923929	      0.41133042
      8.03000000	      3.65228421	     -3.11430987	      1.94918021	     -0.10717898	      0.94171096	      0.18952016	     -5.79560457	      9.18996998	     -2.88227540	     -2.44982493	     11.63871517	     -1.35055052	      0.00000000	     15.03056782	     -2.00474826	      0.86427314	    -35.37001827	      9.80624434	     -5.74691571	      0.00000000	    -19.78630213	      3.49719817	      0.63467415
      8.04000000	      3.45655917	     -3.13955063	      1.94939965	     -0.09924018	      0.94098898	      0.18935436	     -6.29214447	      9.22633285	     -2.84342211	     -2.14175965	     11.95352713	     -1.24832665	      0.00000000	     15.34728322	     -1.94686715	      0.91704850	    -32.65974767	      9.73577303	     -5.36946136	      0.00000000	    -19.66518186	      3.51097849	      0.86246023
      8.05000000	      3.30317555	     -3.20273010	      1.91715248	     -0.09122597	      0.94020885	      0.18922470	     -6.84134687	      9.29841812	     -2.78294245	     -1.83085283	     12.31511484	     -1.09226707	      0.00000000	     15.54444530	     -1.94591455	      0.91386801	    -29.83066743	      9.62302474	     -4.85153460	      0.00000000	    -19.57954802	      3.54647180	      1.14584416
      8.06000000	      3.14227938	     -3.28864091	      1.85686692	     -0.08316905	      0.93931312	      0.18906625	     -7.36412806	      9.38162731	     -2.69969409	     -1.56550952	     12.66751837	     -0.91582175	      0.00000000	     15.68359625	     -1.96936189	      0.87903660	    -26.90520649	      9.50069737	     -4.18636168	      0.00000000	    -19.48336103	      3.62174102	      1.44887131
      8.07000000	      2.97446737	     -3.39711726	      1.76215979	     -0.07503544	      0.93829952	      0.18892759	     -7.87647282	      9.47865818	     -2.57309350	     -1.32055556	     13.02002943	     -0.75099963	      0.00000000	     15.77167958	     -2.02363650	      0.79580598	    -23.91412366	      9.35646269	     -3.41112500	      0.00000000	    -19.36226981	      3.70907114	      1.78096680
      8.08000000	      2.80922544	     -3.53123630	      1.62917957	     -0.06684019	      0.93719370	      0.18879556	     -8.38271994	      9.59046200	     -2.38019874	     -1.10951575	     13.36786480	     -0.60672314	      0.00000000	     15.80196972	     -2.10649807	      0.68901356	    -20.87759732	      9.17042559	     -2.57609916	      0.00000000	    -19.23771422	      3.82191795	      2.15347001
      8.09000000	      2.66443307	     -3.67974525	      1.46810991	     -0.05857046	      0.93602792	      0.18866853	     -8.90846520	      9.70765336	     -2.15010509	     -0.91960579	     13.70238440	     -0.47077056	      0.00000000	     15.75921915	     -2.20809409	      0.55960410	    -17.81850611	      8.98092710	     -1.67095559	      0.00000000	    -19.12732297	      3.94287420	      2.55100242
      8.10000000	      2.48579018	     -3.83656293	      1.27416951	     -0.05022391	      0.93474354	      0.18853755	     -9.38506706	      9.82181215	     -1.88068627	     -0.77147873	     14.05247962	     -0.35896158	      0.00000000	     15.69390891	     -2.30974602	      0.49190171	    -14.74115507	      8.67329047	     -0.89098594	      0.00000000	    -18.96127768	      4.06781422	      2.96039582
      8.11000000	      2.38181726	     -4.01633437	      1.05394199	     -0.04182116	      0.93349858	      0.18839962	     -9.92701330	      9.95037480	     -1.58648178	     -0.66850041	     14.37268769	     -0.23377491	      0.00000000	     15.49970848	     -2.44470472	      0.43289244	    -11.69066769	      8.39507152	     -0.11094926	      0.00000000	    -18.89796947	      4.21934493	      3.39443984
      8.12000000	      2.26587409	     -4.21767400	      0.83446663	     -0.03332897	      0.93216584	      0.18822361	    -10.45539272	     10.09742999	     -1.30026535	     -0.57727613	     14.71342560	     -0.12163922	      0.00000000	     15.29627164	     -2.60233774	      0.39922925	     -8.73244843	      8.04485896	      0.54123417	      0.00000000	    -18.79618327	      4.40577946	      3.83726905
      8.13000000	      2.19841074	     -4.41638957	      0.59129565	     -0.02478876	      0.93086386	      0.18803385	    -10.99562574	     10.23131574	     -1.02955276	     -0.57728840	     15.02388611	     -0.00731642	      0.00000000	     15.01531854	     -2.76615264	      0.34276728	     -5.89403923	      7.70754372	      1.06679171	      0.00000000	    -18.76994487	      4.58086995	      4.24216800
      8.14000000	      2.12954724	     -4.64616711	      0.35921452	     -0.01617695	      0.92951831	      0.18777535	    -11.52589654	     10.39451330	     -0.77840482	     -0.59949338	     15.36253989	      0.09488639	      0.00000000	     14.76871237	     -2.96098994	      0.17597495	     -3.29113747	      7.32464042	      1.45394020	      0.00000000	    -18.72675272	      4.81319643	      4.64662758
      8.15000000	      2.09072027	     -4.86754872	      0.12298479	     -0.00751105	      0.92820696	      0.18745380	    -12.05153919	     10.53996524	     -0.55653551	     -0.70039152	     15.68458962	      0.19201694	      0.00000000	     14.52731158	     -3.13931018	     -0.12991332	     -0.97349431	      6.97881032	      1.71905432	      0.00000000	    -18.72838619	      5.03699499	      5.01057106
      8.16000000	      2.12343004	     -5.04377425	     -0.11365397	      0.00123896	      0.92700665	      0.18703386	    -12.61891503	     10.62514699	     -0.36564679	     -0.88166480	     16.00140940	      0.30421587	      0.00000000	     14.25681054	     -3.25222373	     -0.60872909	      1.00008596	      6.71644404	      1.90993232	      0.00000000	    -18.81755920	      5.21852357	      5.33963976
      8.17000000	      2.11768157	     -5.25589413	     -0.35679307	      0.01001892	      0.92577857	      0.18653719	    -13.11105651	     10.73795074	     -0.17494080	     -1.12870697	     16.30048858	      0.38976311	      0.00000000	     14.12092557	     -3.38108898	     -1.26803090	      2.53146147	      6.49632793	      1.98433166	      0.00000000	    -18.86425671	      5.46057313	      5.64975393
      8.18000000	      2.15487176	     -5.43946635	     -0.59395398	      0.01887744	      0.92465281	      0.18592769	    -13.61255674	     10.80784117	      0.01589468	     -1.45552600	     16.57711671	      0.47015589	      0.00000000	     14.00528783	     -3.45932434	     -2.00588868	      3.62270183	      6.36949756	      2.02834062	      0.00000000	    -18.95763644	      5.68530503	      5.94840130
      8.19000000	      2.28055507	     -5.60022684	     -0.79758651	      0.02780530	      0.92370226	      0.18518842	    -14.16839397	     10.84651017	      0.13133441	     -1.85895985	     16.83024619	      0.53022304	      0.00000000	     13.90541563	     -3.48792886	     -3.04140780	      4.18427011	      6.46869239	      2.48365409	      0.00000000	    -19.16316420	      5.90002227	      6.16916703
      8.20000000	      2.30305533	     -5.77696999	     -1.05324430	      0.03681718	      0.92265730	      0.18443674	    -14.55978610	     10.88011298	      0.34910830	     -2.38645571	     17.03668434	      0.57287540	      0.00000000	     13.92367862	     -3.55762980	     -3.69591401	      4.36743010	      6.44812763	      2.31288126	      0.00000000	    -19.22623473	      6.13722237	      6.44714585
      8.21000000	      2.44851795	     -5.90907967	     -1.28171200	      0.04594309	      0.92184833	      0.18358405	    -15.05610206	     10.85524251	      0.55897710	     -2.96580506	     17.19211486	      0.56046166	      0.00000000	     13.86352198	     -3.58302622	     -4.45506985	      4.11461812	      6.48909904	      2.53450818	      0.00000000	    -19.43736763	      6.32940937	      6.67154411
